<svg xmlns="http://www.w3.org/2000/svg" version="1.1" xmlns:xlink="http://www.w3.org/1999/xlink" xmlns:svgjs="http://svgjs.com/svgjs" width="1000" height="1000"><rect width="1000" height="1000" rx="200" ry="200" fill="#1b232e"></rect><g transform="matrix(1.5625,0,0,1.5625,101.12500429153442,90.4375)"><svg xmlns="http://www.w3.org/2000/svg" version="1.1" xmlns:xlink="http://www.w3.org/1999/xlink" xmlns:svgjs="http://svgjs.com/svgjs" width="512" height="512"><svg width="512" height="512" viewBox="0 0 512 512" fill="none" xmlns="http://www.w3.org/2000/svg">
<g clip-path="url(#clip0_3_15)">
<path d="M172.58 195.5C172.58 236.11 139.41 269.28 98.8 269.28C58.19 269.28 25.02 236.11 25.02 195.5C25.02 154.89 58.19 121.72 98.8 121.72C139.41 121.72 172.58 154.89 172.58 195.5ZM25.02 195.5C25.02 154.89 58.19 121.72 98.8 121.72C139.41 121.72 172.58 154.89 172.58 195.5C172.58 236.11 139.41 269.28 98.8 269.28C58.19 269.28 25.02 236.11 25.02 195.5ZM180.42 276.72V424.28H327.98V276.72H180.42ZM327.98 121.72H482.98V269.28H327.98C301.01 269.28 275.9 262.15 254.2 249.44C231.88 236.73 213.28 217.82 200.26 195.5C187.55 173.8 180.42 148.69 180.42 121.72H327.98ZM327.98 121.72H335.42H482.98V269.28H335.42H327.98H482.98V121.72H327.98Z" fill="#E6E6E6"></path>
</g>
<defs>
<clipPath id="clip0_3_15">
<rect width="512" height="512" fill="white"></rect>
</clipPath>
</defs>
</svg></svg></g></svg>